# xmcd
#
# Track frame offsets:
#       150
#       28462
#       49907
#       91820
#       109337
#
# Disc length: 1766 seconds
#
# Revision: 0
# Processed by: cddbd v1.5.1PL0 Copyright (c) Steve Scherf et al.
# Submitted via: CD-DA_X-Tractor v0.24
#
DISCID=4006e405
DTITLE=Fiona Boyes - Live In Atlanta EP (Official Bootleg)
DYEAR=2004
DGENRE=Blues
TTITLE0=Run Here
TTITLE1=Canned Heat Blues
TTITLE2=Brown Liquor
TTITLE3=Mailbox Blues
TTITLE4=Mercy (Mississippi Road)
EXTD=
EXTT0=
EXTT1=
EXTT2=
EXTT3=
EXTT4=
PLAYORDER=
